<svg width="14" height="14" viewBox="0 0 14 14" fill="none" xmlns="http://www.w3.org/2000/svg">
<path d="M12.9878 1.0123C12.3351 0.359567 11.466 7.02688e-05 10.5406 0C10.5405 0 10.5404 0 10.5403 0C9.61499 0 8.74594 0.359427 8.09333 1.01205L5.18636 3.91905C4.97119 4.13421 4.78666 4.37545 4.63622 4.63643C4.37524 4.78687 4.13411 4.9713 3.91909 5.18636L1.01209 8.09333C-0.337363 9.44286 -0.337363 11.6386 1.01209 12.9881C1.68678 13.6627 2.57284 14.0001 3.45911 14.0001C4.34538 14 5.23186 13.6626 5.90661 12.9879L8.81356 10.0808C9.02846 9.86601 9.21284 9.62486 9.36327 9.36376C9.62437 9.21333 9.86566 9.02874 10.0808 8.81356L12.9878 5.90654C14.3372 4.5572 14.3372 2.36164 12.9878 1.0123ZM5.53394 12.6151C4.38985 13.7591 2.5285 13.7592 1.38473 12.6154C0.240707 11.4714 0.240707 9.60995 1.38473 8.46594L4.29173 5.55896C4.48953 5.36115 4.71292 5.19352 4.95587 5.06068C5.6644 4.67269 6.51279 4.59486 7.28371 4.8472C7.72324 4.99104 8.11265 5.23052 8.44109 5.55896C8.7318 5.8497 8.95251 6.18783 9.09881 6.56573L8.46594 7.19866C8.34876 7.31584 8.21184 7.40495 8.06141 7.46319C8.0234 7.07504 7.85365 6.71056 7.57155 6.4285C7.20272 6.05963 6.69261 5.88195 6.17311 5.94108C5.79183 5.98412 5.43248 6.15723 5.16116 6.4285L2.2542 9.33548C1.5897 10.0001 1.5897 11.0813 2.2542 11.7459C2.57557 12.0672 3.00341 12.2442 3.459 12.2442C3.45911 12.2442 3.45921 12.2442 3.45932 12.2442C3.91494 12.2441 4.34288 12.067 4.66436 11.7456L6.70948 9.70046C7.0119 9.78383 7.32249 9.82555 7.63252 9.82555C7.89474 9.82555 8.15633 9.79566 8.4119 9.73707L5.53394 12.6151ZM9.5004 6.16422C9.33177 5.80223 9.10196 5.47446 8.81377 5.18632C8.52579 4.89832 8.19791 4.66843 7.83552 4.49954L9.70816 2.6269C9.92999 2.40507 10.2255 2.2829 10.5403 2.2829C10.5404 2.2829 10.5405 2.2829 10.5405 2.2829C10.8554 2.28294 11.151 2.40521 11.373 2.62715C11.5949 2.84906 11.7171 3.14462 11.7171 3.45942C11.7171 3.77423 11.5948 4.06978 11.3729 4.29169L9.5004 6.16422ZM7.19894 6.80117C7.39928 7.00154 7.51744 7.26215 7.539 7.539C7.26215 7.51737 7.00154 7.39921 6.80121 7.19887C6.60101 6.99866 6.48278 6.73804 6.46101 6.46104C6.73793 6.48275 6.99867 6.60091 7.19894 6.80117ZM4.49958 7.83552C4.66848 8.19791 4.89839 8.52579 5.18639 8.81377C5.47453 9.10196 5.80234 9.33184 6.16422 9.5004L4.29173 11.373C4.06981 11.5949 3.77419 11.7172 3.45928 11.7172C3.45921 11.7172 3.45918 11.7172 3.45907 11.7172C3.1443 11.7172 2.84875 11.595 2.62695 11.3732C2.16791 10.9141 2.16791 10.1672 2.62695 9.70816L4.49958 7.83552ZM12.6151 5.53391L9.70816 8.44088C9.5102 8.63891 9.28676 8.80656 9.04372 8.93942C8.33518 9.3275 7.48685 9.40527 6.71605 9.15257C6.27708 9.00921 5.88778 8.76988 5.55903 8.44116C5.2685 8.15066 5.04775 7.81235 4.9011 7.434L5.53391 6.80117C5.65111 6.68393 5.78807 6.59486 5.93852 6.53665C5.97671 6.92502 6.14651 7.28952 6.42854 7.57155C6.75083 7.89383 7.18039 8.07016 7.63035 8.07016C7.69545 8.07016 7.76104 8.06645 7.8267 8.05896C8.20813 8.0157 8.56751 7.84245 8.83862 7.57134L11.7456 4.66432C12.067 4.34288 12.2441 3.91497 12.2441 3.45939C12.2441 3.00383 12.067 2.57589 11.7456 2.25448C11.4241 1.93304 10.9962 1.75596 10.5406 1.75589C10.5405 1.75589 10.5404 1.75589 10.5403 1.75589C10.0847 1.75589 9.65678 1.93286 9.33548 2.25423L7.2905 4.29917C6.73217 4.14542 6.14543 4.13513 5.58774 4.26291L8.46594 1.38469C9.01908 0.8316 9.75569 0.527019 10.5403 0.527019C10.5403 0.527019 10.5405 0.527019 10.5405 0.527019C11.3252 0.527089 12.062 0.831775 12.6151 1.38497C13.759 2.52885 13.759 4.39003 12.6151 5.53391Z" fill="white"/>
</svg>
