<svg width="20" height="20" viewBox="0 0 20 20" fill="none" xmlns="http://www.w3.org/2000/svg">
<g clip-path="url(#clip0_1306_522)">
<path d="M18.554 1.44614C17.6215 0.513667 16.38 0.000100384 15.058 0C15.0578 0 15.0577 0 15.0576 0C13.7357 0 12.4942 0.513467 11.5619 1.44579L7.40908 5.59864C7.1017 5.90602 6.83809 6.25064 6.62317 6.62347C6.25034 6.83839 5.90587 7.10185 5.5987 7.40908L1.44584 11.5619C-0.481946 13.4898 -0.481946 16.6266 1.44584 18.5544C2.40968 19.5182 3.67548 20.0001 4.94158 20.0001C6.20768 20 7.47408 19.518 8.43802 18.5541L12.5908 14.4012C12.8978 14.0943 13.1612 13.7498 13.3761 13.3768C13.7491 13.1619 14.0938 12.8982 14.4012 12.5908L18.554 8.43792C20.4817 6.51028 20.4817 3.37377 18.554 1.44614V1.44614ZM7.90563 18.0216C6.27122 19.6559 3.61214 19.656 1.97818 18.022C0.343867 16.3877 0.343867 13.7285 1.97818 12.0942L6.13104 7.94137C6.41362 7.65878 6.73274 7.41932 7.07982 7.22954C8.092 6.67527 9.30399 6.56409 10.4053 6.92457C11.0332 7.13006 11.5895 7.47217 12.0587 7.94137C12.474 8.35671 12.7893 8.83976 12.9983 9.37962L12.0942 10.2838C11.9268 10.4512 11.7312 10.5785 11.5163 10.6617C11.462 10.1072 11.2195 9.58652 10.8165 9.18357C10.2896 8.65661 9.56087 8.40278 8.81873 8.48726C8.27404 8.54874 7.76068 8.79604 7.37309 9.18357L3.22029 13.3364C2.271 14.2858 2.271 15.8304 3.22029 16.7798C3.67939 17.2389 4.29059 17.4917 4.94143 17.4917C4.94158 17.4917 4.94173 17.4917 4.94188 17.4917C5.59277 17.4916 6.20411 17.2386 6.66337 16.7794L9.58497 13.8578C10.017 13.9769 10.4607 14.0365 10.9036 14.0365C11.2782 14.0365 11.6519 13.9938 12.017 13.9101L7.90563 18.0216V18.0216ZM13.572 8.80603C13.3311 8.2889 13.0028 7.82065 12.5911 7.40903C12.1797 6.9976 11.7113 6.66919 11.1936 6.42792L13.8688 3.75272C14.1857 3.43581 14.6079 3.26129 15.0576 3.26129C15.0577 3.26129 15.0578 3.26129 15.0579 3.26129C15.5077 3.26134 15.93 3.43601 16.2471 3.75307C16.5641 4.07009 16.7387 4.49231 16.7387 4.94203C16.7387 5.39175 16.564 5.81397 16.247 6.13098L13.572 8.80603V8.80603ZM10.2842 9.71596C10.5704 10.0022 10.7392 10.3745 10.77 10.77C10.3745 10.7391 10.0022 10.5703 9.71602 10.2841C9.43002 9.99809 9.26112 9.62577 9.23001 9.23005C9.62562 9.26107 9.9981 9.42987 10.2842 9.71596ZM6.42797 11.1936C6.66925 11.7113 6.9977 12.1797 7.40913 12.5911C7.82076 13.0028 8.28905 13.3312 8.80603 13.572L6.13104 16.2471C5.81402 16.5641 5.3917 16.7388 4.94183 16.7389C4.94173 16.7389 4.94168 16.7389 4.94153 16.7389C4.49186 16.7389 4.06964 16.5643 3.75278 16.2474C3.09701 15.5916 3.09701 14.5246 3.75278 13.8688L6.42797 11.1936ZM18.0216 7.90558L13.8688 12.0584C13.586 12.3413 13.2668 12.5808 12.9196 12.7706C11.9074 13.325 10.6955 13.4361 9.59435 13.0751C8.96725 12.8703 8.41112 12.5284 7.94147 12.0588C7.52643 11.6438 7.21107 11.1605 7.00157 10.62L7.90558 9.71596C8.07302 9.54847 8.26867 9.42123 8.4836 9.33807C8.53816 9.89289 8.78073 10.4136 9.18363 10.8165C9.64404 11.2769 10.2577 11.5288 10.9005 11.5288C10.9935 11.5288 11.0872 11.5235 11.181 11.5128C11.7259 11.451 12.2393 11.2035 12.6266 10.8162L16.7794 6.66332C17.2386 6.20411 17.4916 5.59282 17.4916 4.94198C17.4916 4.29119 17.2386 3.67984 16.7794 3.22069C16.3202 2.76148 15.7089 2.50851 15.058 2.50841C15.0578 2.50841 15.0577 2.50841 15.0575 2.50841C14.4067 2.50841 13.7954 2.76123 13.3364 3.22033L10.415 6.14167C9.61739 5.92203 8.77918 5.90733 7.98248 6.08987L12.0942 1.97813C12.8844 1.188 13.9367 0.752884 15.0576 0.752884C15.0576 0.752884 15.0578 0.752884 15.0579 0.752884C16.1788 0.752984 17.2314 1.18825 18.0216 1.97853C19.6557 3.61264 19.6557 6.27147 18.0216 7.90558Z" fill="white"/>
</g>
<defs>
<clipPath id="clip0_1306_522">
<rect width="20" height="20" fill="white"/>
</clipPath>
</defs>
</svg>
