<svg width="14" height="14" viewBox="0 0 14 14" fill="none" xmlns="http://www.w3.org/2000/svg">
<path d="M5.2498 6.30078H4.5498V11.9008H5.2498V6.30078Z" fill="white"/>
<path d="M7.35039 6.30078H6.65039V11.9008H7.35039V6.30078Z" fill="white"/>
<path d="M9.45 6.30078H8.75V11.9008H9.45V6.30078Z" fill="white"/>
<path d="M11.55 1.4H8.75V0.7C8.75 0.313359 8.43664 0 8.05 0H5.95C5.56336 0 5.25 0.313359 5.25 0.7V1.4H2.45C2.06336 1.4 1.75 1.71336 1.75 2.1V3.5C1.75 3.88664 2.06336 4.2 2.45 4.2V13.3C2.45 13.6866 2.76336 14 3.15 14H10.85C11.2366 14 11.55 13.6866 11.55 13.3V4.2C11.9366 4.2 12.25 3.88664 12.25 3.5V2.1C12.25 1.71336 11.9366 1.4 11.55 1.4ZM5.95 0.7H8.05V1.4H5.95V0.7V0.7ZM10.85 13.3H3.15V4.2H10.85V13.3ZM11.55 3.5H2.45V2.1H11.55V3.5Z" fill="white"/>
</svg>
