<svg width="24" height="24" viewBox="0 0 24 24" fill="none" xmlns="http://www.w3.org/2000/svg">
<path fill-rule="evenodd" clip-rule="evenodd" d="M12 0C15.1826 0 18.2348 1.26427 20.4853 3.51471C22.7357 5.76515 24 8.8174 24 12C24 18.6274 18.6274 24 12 24C5.37258 24 0 18.6274 0 12C0 5.37258 5.37258 0 12 0ZM12 1.71429C6.31936 1.71429 1.71429 6.31936 1.71429 12C1.71429 17.6806 6.31936 22.2857 12 22.2857C14.7279 22.2857 17.3442 21.202 19.2731 19.2731C21.202 17.3442 22.2857 14.7279 22.2857 12C22.2857 6.31936 17.6806 1.71429 12 1.71429ZM14.43 8.36142C14.7637 8.02768 15.3048 8.02768 15.6386 8.36142C15.9723 8.69516 15.9723 9.23627 15.6386 9.57001L13.2086 12L15.6386 14.43C15.9723 14.7637 15.9723 15.3048 15.6386 15.6386C15.3048 15.9723 14.7637 15.9723 14.43 15.6386L12 13.2086L9.57 15.6386C9.23626 15.9723 8.69516 15.9723 8.36143 15.6386C8.02769 15.3048 8.02769 14.7637 8.36143 14.43L10.7914 12L8.36143 9.57001C8.02769 9.23627 8.02769 8.69516 8.36143 8.36142C8.69516 8.02768 9.23626 8.02768 9.57 8.36142L12 10.7914L14.43 8.36142Z" fill="#F0276F"/>
</svg>
