<svg width="14" height="14" viewBox="0 0 14 14" fill="none" xmlns="http://www.w3.org/2000/svg">
<path d="M4.10101 7L0.139675 3.0387C-0.046496 2.85248 -0.046496 2.55062 0.139675 2.36445L2.36452 0.139594C2.55074 -0.0465313 2.85259 -0.0465313 3.03876 0.139594L7 4.10099L10.9613 0.139641C11.1475 -0.0464846 11.4494 -0.0464846 11.6355 0.139641L13.8604 2.36449C14.0465 2.55071 14.0465 2.85257 13.8604 3.03874L9.89899 7L13.8603 10.9613C14.0465 11.1475 14.0465 11.4494 13.8603 11.6356L11.6355 13.8604C11.4493 14.0465 11.1474 14.0465 10.9612 13.8604L7 9.89901L3.03867 13.8603C2.94561 13.9534 2.82356 13.9999 2.70157 13.9999C2.57957 13.9999 2.45758 13.9534 2.36447 13.8604L0.139628 11.6355C-0.046543 11.4493 -0.046543 11.1474 0.139628 10.9613L4.10101 7ZM2.70162 12.8491L6.6629 8.88775C6.75596 8.79469 6.87801 8.74814 7 8.74814C7.12199 8.74814 7.24404 8.79469 7.33715 8.88775L11.2984 12.8491L12.8491 11.2985L8.88774 7.33715C8.70157 7.15093 8.70157 6.84907 8.88774 6.6629L12.8491 2.7016L11.2984 1.15094L7.33715 5.11229C7.15093 5.29842 6.84907 5.29842 6.6629 5.11229L2.70162 1.15094L1.15097 2.7016L5.1123 6.6629C5.29847 6.84912 5.29847 7.15098 5.1123 7.33715L1.15097 11.2985L2.70162 12.8491Z" fill="white"/>
</svg>
