<svg width="16" height="16" viewBox="0 0 16 16" fill="none" xmlns="http://www.w3.org/2000/svg">
<path fill-rule="evenodd" clip-rule="evenodd" d="M8 16C12.4183 16 16 12.4183 16 8C16 3.58172 12.4183 0 8 0C3.58172 0 0 3.58172 0 8C0 12.4183 3.58172 16 8 16ZM10.4259 5.57428C10.2034 5.35179 9.84263 5.35179 9.62014 5.57428L8.00014 7.19429L6.38014 5.57428C6.15764 5.35179 5.79691 5.35179 5.57442 5.57428C5.35193 5.79677 5.35193 6.15751 5.57442 6.38L7.19442 8L5.57442 9.61999C5.35193 9.84249 5.35193 10.2032 5.57442 10.4257C5.79691 10.6482 6.15764 10.6482 6.38014 10.4257L8.00014 8.8057L9.62014 10.4257C9.84263 10.6482 10.2034 10.6482 10.4259 10.4257C10.6483 10.2032 10.6483 9.84249 10.4259 9.61999L8.80585 8L10.4259 6.38C10.6483 6.15751 10.6483 5.79677 10.4259 5.57428Z" fill="#6D727D"/>
</svg>
