<svg width="20" height="20" viewBox="0 0 20 20" fill="none" xmlns="http://www.w3.org/2000/svg">
<g clip-path="url(#clip0_1306_456)">
<path d="M19.5404 0.459596C18.9276 -0.153179 17.9303 -0.153218 17.3174 0.459596L13.2992 4.47773C11.6697 3.63898 9.61618 3.89999 8.2525 5.26375L5.30082 8.21539C3.93714 9.57907 3.67605 11.6326 4.5148 13.2621L0.459669 17.3173C-0.153223 17.9302 -0.153223 18.9275 0.459669 19.5403C0.766154 19.8467 1.16866 20 1.57116 20C1.97366 20 2.37624 19.8467 2.68264 19.5403L6.73684 15.4862C7.34285 15.7992 8.01903 15.966 8.72176 15.966C9.87989 15.966 10.9676 15.5161 11.7845 14.6991C11.9892 14.4945 11.9892 14.1628 11.7845 13.9581L10.3025 12.4761C10.2043 12.3779 10.071 12.3227 9.93204 12.3227C9.79309 12.3227 9.65977 12.3779 9.56153 12.4761C9.49876 12.5389 9.42969 12.5928 9.35645 12.6393C9.54356 12.0897 9.4186 11.4564 8.9811 11.0189C8.5436 10.5814 7.91028 10.4565 7.3607 10.6436C7.40711 10.5703 7.46109 10.5012 7.52383 10.4385L10.4755 7.48684C10.5297 7.43262 10.5881 7.3852 10.6493 7.34375C10.4538 7.89723 10.5769 8.53918 11.0188 8.98118C11.3253 9.28758 11.7278 9.44079 12.1303 9.44079C12.3086 9.44079 12.4868 9.41059 12.6567 9.35051C12.6147 9.41223 12.567 9.47059 12.5132 9.52446C12.4149 9.6227 12.3597 9.75598 12.3597 9.89497C12.3597 10.0339 12.4149 10.1672 12.5132 10.2655L13.9952 11.7475C14.1998 11.9521 14.5316 11.952 14.7362 11.7475C16.0999 10.3838 16.361 8.33024 15.5222 6.70074L19.5403 2.68257C20.1533 2.06976 20.1533 1.07253 19.5404 0.459596ZM9.8886 13.5441L10.6438 14.2993C10.0886 14.7012 9.42235 14.9181 8.72184 14.9181C8.30629 14.9181 7.90281 14.8417 7.52746 14.6956L8.37844 13.8447C8.49106 13.862 8.60575 13.8711 8.72192 13.8711C9.14036 13.8711 9.5411 13.7572 9.8886 13.5441ZM7.49914 11.7599C7.60125 11.6577 7.73543 11.6067 7.86965 11.6067C8.00383 11.6067 8.13801 11.6577 8.24016 11.7599C8.44446 11.9642 8.44446 12.2965 8.24016 12.5008L1.94167 18.7993C1.73741 19.0036 1.40498 19.0036 1.20069 18.7993C0.996389 18.595 0.996389 18.2626 1.20069 18.0583L7.49914 11.7599ZM9.7345 6.74578L6.78285 9.69743C6.36113 10.1191 6.12883 10.6806 6.12883 11.2782C6.12883 11.3944 6.13793 11.509 6.15527 11.6217L5.30539 12.4715C4.84792 11.2945 5.09308 9.90516 6.04176 8.95641L8.99344 6.00476C9.63356 5.36465 10.4744 5.04461 11.3152 5.04461C11.7206 5.04461 12.1259 5.11933 12.5087 5.26828L11.6581 6.11894C10.9775 6.01394 10.2576 6.22266 9.7345 6.74578ZM14.3362 10.6065L13.5812 9.85153C13.7942 9.50403 13.9081 9.10333 13.9081 8.68477C13.9081 8.5686 13.899 8.45391 13.8817 8.34129L14.7312 7.49184C15.1279 8.51235 14.9969 9.69227 14.3362 10.6065ZM18.7994 1.94159L12.5009 8.24012C12.2966 8.44442 11.9642 8.44442 11.7599 8.24012C11.5556 8.03582 11.5556 7.70336 11.7599 7.49906L18.0583 1.20065C18.2627 0.996355 18.5951 0.996316 18.7994 1.20065C19.0037 1.40495 19.0037 1.73733 18.7994 1.94159Z" fill="white"/>
<path d="M16.4288 15.6507L14.7245 13.9464C14.5199 13.7418 14.1882 13.7418 13.9836 13.9464C13.7789 14.151 13.7789 14.4828 13.9836 14.6874L15.6879 16.3917C15.7902 16.494 15.9243 16.5452 16.0584 16.5452C16.1924 16.5452 16.3266 16.494 16.4289 16.3917C16.6334 16.1871 16.6335 15.8553 16.4288 15.6507Z" fill="white"/>
<path d="M18.6229 12.8064L16.0247 12.4312C15.7384 12.3899 15.4725 12.5884 15.4312 12.8749C15.3899 13.1613 15.5885 13.427 15.8749 13.4684L18.4731 13.8436C18.4985 13.8472 18.5237 13.849 18.5486 13.849C18.8048 13.849 19.0289 13.6609 19.0665 13.3999C19.1079 13.1134 18.9092 12.8477 18.6229 12.8064Z" fill="white"/>
<path d="M13.8807 18.4359L13.5055 15.8378C13.4642 15.5514 13.1983 15.3529 12.912 15.3941C12.6256 15.4355 12.427 15.7011 12.4683 15.9876L12.8435 18.5857C12.8811 18.8467 13.1052 19.0348 13.3614 19.0348C13.3863 19.0348 13.4116 19.033 13.437 19.0294C13.7234 18.988 13.9221 18.7224 13.8807 18.4359Z" fill="white"/>
</g>
<defs>
<clipPath id="clip0_1306_456">
<rect width="20" height="20" fill="white"/>
</clipPath>
</defs>
</svg>
