<svg width="15" height="14" viewBox="0 0 15 14" fill="none" xmlns="http://www.w3.org/2000/svg">
<g clip-path="url(#clip0_1301_431)">
<path d="M9.84027 8.43037C9.53493 8.43037 9.28739 8.67208 9.28739 8.97039V12.9193H1.20147V5.02145H5.24443C5.54977 5.02145 5.79731 4.77974 5.79731 4.48143C5.79731 4.18312 5.54977 3.94141 5.24443 3.94141H0.648584C0.343247 3.94141 0.0957031 4.18312 0.0957031 4.48143V13.4593C0.0957031 13.7576 0.343247 13.9993 0.648584 13.9993H9.8402C10.1455 13.9993 10.3931 13.7576 10.3931 13.4593V8.97032C10.3932 8.67208 10.1456 8.43037 9.84027 8.43037Z" fill="#F8F8F8"/>
<path d="M17.267 2.48735L14.8827 0.158191C14.779 0.0568825 14.6383 0 14.4917 0C14.3451 0 14.2044 0.0568825 14.1008 0.158119L11.716 2.48742C11.7157 2.48771 11.7154 2.48814 11.7151 2.48843L7.14104 6.95608C7.04145 7.05343 6.98365 7.18404 6.97938 7.32157L6.90455 9.72366C6.89991 9.87249 6.95844 10.0166 7.06622 10.1219C7.17008 10.2233 7.31074 10.28 7.45714 10.28C7.46274 10.28 7.46842 10.28 7.47402 10.2797L9.93324 10.2064C10.074 10.2023 10.2078 10.1458 10.3074 10.0486L17.267 3.25094C17.4829 3.04019 17.4829 2.69825 17.267 2.48735ZM14.4915 4.43446L12.8889 2.86932L14.4917 1.30376L16.0942 2.86918L14.4915 4.43446ZM9.68046 9.1336L8.02764 9.18292L8.07791 7.56847L12.1069 3.63306L13.7096 5.19827L9.68046 9.1336Z" fill="#F8F8F8"/>
</g>
<defs>
<clipPath id="clip0_1301_431">
<rect width="14.3333" height="14" fill="white" transform="translate(0.0957031)"/>
</clipPath>
</defs>
</svg>
