<svg width="14" height="14" viewBox="0 0 14 14" fill="none" xmlns="http://www.w3.org/2000/svg">
<path d="M7.87081 8.80938C7.62418 8.80938 7.42424 9.00461 7.42424 9.24556V12.4351H0.893142V6.05596H4.15869C4.40532 6.05596 4.60526 5.86072 4.60526 5.61977C4.60526 5.37883 4.40532 5.18359 4.15869 5.18359H0.446569C0.199944 5.18359 0 5.37883 0 5.61977V12.8713C0 13.1123 0.199944 13.3075 0.446569 13.3075H7.87075C8.11735 13.3075 8.31733 13.1123 8.31733 12.8713V9.24551C8.31741 9.00461 8.11743 8.80938 7.87081 8.80938Z" fill="#F8F8F8"/>
<path d="M13.8691 4.00906L11.9433 2.12777C11.8595 2.04594 11.7459 2 11.6275 2C11.5091 2 11.3954 2.04594 11.3117 2.12771L9.3855 4.00912C9.38526 4.00935 9.38501 4.0097 9.38477 4.00994L5.69025 7.61851C5.60981 7.69714 5.56312 7.80264 5.55967 7.91372L5.49923 9.85392C5.49548 9.97413 5.54276 10.0905 5.62981 10.1756C5.7137 10.2575 5.82732 10.3033 5.94556 10.3033C5.95009 10.3033 5.95468 10.3033 5.9592 10.303L7.94554 10.2438C8.05923 10.2405 8.16731 10.1949 8.24775 10.1164L13.8691 4.62582C14.0435 4.4556 14.0435 4.17941 13.8691 4.00906ZM11.6273 5.58177L10.3329 4.31759L11.6275 3.05306L12.9218 4.31747L11.6273 5.58177ZM7.74137 9.37732L6.40636 9.41716L6.44697 8.11315L9.70123 4.93447L10.9958 6.19871L7.74137 9.37732Z" fill="#F8F8F8"/>
</svg>
