<svg width="28" height="15" viewBox="0 0 28 15" fill="none" xmlns="http://www.w3.org/2000/svg">
<path d="M13.9996 10.4485C15.9038 10.4485 17.4475 8.9048 17.4475 7.0006C17.4475 5.0964 15.9038 3.55273 13.9996 3.55273C12.0954 3.55273 10.5518 5.0964 10.5518 7.0006C10.5518 8.9048 12.0954 10.4485 13.9996 10.4485Z" fill="white"/>
<path d="M27.8265 6.56458C27.574 6.2974 21.5669 0 13.9982 0C6.43037 0 0.424133 6.2974 0.172277 6.56458C-0.0574255 6.80994 -0.0574255 7.19255 0.172277 7.43675C0.425132 7.70393 6.43153 14.0042 13.9982 14.0042C21.5669 14.0042 27.5758 7.70393 27.8265 7.43675C28.0578 7.19255 28.0578 6.80794 27.8265 6.56458ZM13.9999 12.3314C11.0617 12.3314 8.67142 9.94065 8.67142 7.00016C8.67142 4.06201 11.0617 1.66988 13.9999 1.66988C16.9379 1.66988 19.3315 4.06118 19.3315 7.00016C19.3308 9.93898 16.9379 12.3314 13.9999 12.3314ZM9.77462 1.96837C8.33461 3.18018 7.39781 4.97399 7.39781 7.00016C7.39781 9.02551 8.33461 10.8195 9.77462 12.0335C5.79023 10.752 2.66135 8.05573 1.54299 7.00016C2.66152 5.94577 5.79107 3.24914 9.77462 1.96837ZM18.2271 12.0315C19.6661 10.8188 20.6041 9.02451 20.6041 7.00016C20.6041 4.97582 19.667 3.18285 18.226 1.97021C22.2102 3.25164 25.3367 5.9446 26.4558 7.00016C25.3366 8.05473 22.21 10.7482 18.2271 12.0315Z" fill="white"/>
</svg>
