<svg width="24" height="20" viewBox="0 0 24 20" fill="none" xmlns="http://www.w3.org/2000/svg">
<path d="M23.7754 17.6625L1.35037 0.131625C1.28886 0.0823795 1.21825 0.0457308 1.14258 0.0237718C1.06691 0.00181274 0.987655 -0.0050267 0.90934 0.00364397C0.831025 0.0123146 0.755186 0.0363256 0.68615 0.074306C0.617115 0.112286 0.556237 0.163492 0.506991 0.225L0.131991 0.693375C0.0826302 0.754904 0.045886 0.825563 0.0238616 0.901307C0.00183717 0.977052 -0.00503526 1.0564 0.00363755 1.1348C0.0123104 1.2132 0.0363582 1.28913 0.074405 1.35823C0.112452 1.42733 0.163751 1.48825 0.225366 1.5375L22.6504 19.0684C22.7119 19.1176 22.7825 19.1543 22.8581 19.1762C22.9338 19.1982 23.0131 19.205 23.0914 19.1964C23.1697 19.1877 23.2455 19.1637 23.3146 19.1257C23.3836 19.0877 23.4445 19.0365 23.4937 18.975L23.8687 18.5066C23.9181 18.4451 23.9548 18.3744 23.9769 18.2987C23.9989 18.2229 24.0058 18.1436 23.9971 18.0652C23.9884 17.9868 23.9644 17.9109 23.9263 17.8418C23.8883 17.7727 23.837 17.7117 23.7754 17.6625ZM11.13 5.49262L16.1846 9.44437C16.1014 7.19662 14.2684 5.4 12.0004 5.4C11.7078 5.40055 11.4161 5.43159 11.13 5.49262ZM12.8707 13.7077L7.81611 9.756C7.89974 12.0034 9.73274 13.8 12.0004 13.8C12.2929 13.7994 12.5846 13.7685 12.8707 13.7077ZM12.0004 4.2C15.6997 4.2 19.0912 6.2625 20.9227 9.6C20.4738 10.4214 19.9191 11.1804 19.2727 11.8575L20.688 12.9637C21.4759 12.1208 22.1435 11.173 22.6717 10.1471C22.7575 9.97743 22.8022 9.78995 22.8022 9.59981C22.8022 9.40967 22.7575 9.22219 22.6717 9.0525C20.6362 5.08462 16.6102 2.4 12.0004 2.4C10.6241 2.4 9.31124 2.6625 8.07674 3.10537L9.81711 4.46625C10.5274 4.305 11.2549 4.2 12.0004 4.2ZM12.0004 15C8.30099 15 4.90987 12.9375 3.07799 9.6C3.52753 8.77862 4.0829 8.01977 4.72987 7.34287L3.31462 6.23662C2.5268 7.07943 1.85934 8.02716 1.33124 9.05287C1.24546 9.22256 1.20076 9.41004 1.20076 9.60019C1.20076 9.79033 1.24546 9.97781 1.33124 10.1475C3.36487 14.1154 7.39086 16.8 12.0004 16.8C13.3766 16.8 14.6895 16.5356 15.924 16.0946L14.1836 14.7341C13.4734 14.895 12.7462 15 12.0004 15Z" fill="white"/>
</svg>
