<svg width="24" height="24" viewBox="0 0 24 24" fill="none" xmlns="http://www.w3.org/2000/svg">
<g clip-path="url(#clip0_20_11)">
<path d="M23.82 9.93999C23.4491 7.69313 22.436 5.60158 20.903 3.91767C19.3699 2.23376 17.3823 1.02943 15.18 0.449988C14.4401 0.264908 13.6883 0.131255 12.93 0.0499878H12.75H11.25C10.82 0.109988 10.39 0.149988 9.95997 0.229988C7.64893 0.617406 5.50352 1.67795 3.79235 3.27884C2.08117 4.87974 0.880258 6.94984 0.339965 9.22999C-0.164893 11.2145 -0.138667 13.297 0.416007 15.2682C0.970682 17.2394 2.03428 19.0299 3.49997 20.46C5.38078 22.4181 7.8982 23.6414 10.6 23.91C13.5314 24.2548 16.4871 23.5071 18.902 21.8099C21.3168 20.1126 23.0215 17.5849 23.69 14.71C23.82 14.15 23.87 13.56 23.96 12.98C23.96 12.91 23.96 12.83 23.96 12.75V11.25C23.94 10.81 23.9 10.37 23.82 9.93999ZM12 22.13C9.99644 22.13 8.03791 21.5359 6.37204 20.4228C4.70617 19.3097 3.40778 17.7276 2.64107 15.8766C1.87435 14.0256 1.67374 11.9888 2.06461 10.0237C2.45548 8.0587 3.42027 6.2537 4.83697 4.837C6.25368 3.42029 8.05867 2.4555 10.0237 2.06463C11.9887 1.67376 14.0255 1.87437 15.8765 2.64109C17.7276 3.4078 19.3097 4.70619 20.4228 6.37206C21.5359 8.03793 22.13 9.99646 22.13 12C22.1313 13.3306 21.8702 14.6485 21.3615 15.8781C20.8529 17.1077 20.1068 18.225 19.1659 19.1659C18.225 20.1068 17.1077 20.853 15.8781 21.3616C14.6485 21.8702 13.3306 22.1313 12 22.13V22.13Z" fill="white"/>
<path d="M12.9399 17C12.9535 17.1309 12.9394 17.2632 12.8986 17.3883C12.8578 17.5135 12.7912 17.6286 12.703 17.7263C12.6149 17.8241 12.5072 17.9022 12.3869 17.9557C12.2667 18.0092 12.1366 18.0368 12.0049 18.0368C11.8733 18.0368 11.7432 18.0092 11.6229 17.9557C11.5027 17.9022 11.395 17.8241 11.3069 17.7263C11.2187 17.6286 11.1521 17.5135 11.1113 17.3883C11.0705 17.2632 11.0564 17.1309 11.0699 17C11.0699 16 11.0699 15 11.0699 14C11.0699 13 11.0699 12 11.0699 11C11.0679 10.8042 11.1277 10.6128 11.2408 10.453C11.3539 10.2932 11.5146 10.1731 11.6999 10.11C11.88 10.0515 12.0741 10.0519 12.254 10.1112C12.4338 10.1706 12.5901 10.2858 12.6999 10.44C12.8148 10.6125 12.8805 10.813 12.8899 11.02C12.9999 13 12.9399 15 12.9399 17Z" fill="white"/>
<path d="M13.2701 7.66001C13.2857 7.83559 13.2646 8.01249 13.2082 8.17947C13.1517 8.34645 13.0611 8.49984 12.9421 8.62989C12.8231 8.75994 12.6783 8.8638 12.517 8.93485C12.3557 9.0059 12.1814 9.04259 12.0051 9.04259C11.8288 9.04259 11.6545 9.0059 11.4932 8.93485C11.3319 8.8638 11.1871 8.75994 11.0681 8.62989C10.9491 8.49984 10.8585 8.34645 10.802 8.17947C10.7456 8.01249 10.7245 7.83559 10.7401 7.66001C10.7682 7.34392 10.9137 7.04982 11.1478 6.83561C11.3819 6.6214 11.6878 6.50259 12.0051 6.50259C12.3224 6.50259 12.6283 6.6214 12.8624 6.83561C13.0965 7.04982 13.242 7.34392 13.2701 7.66001Z" fill="white"/>
</g>
<defs>
<clipPath id="clip0_20_11">
<rect width="24" height="24" fill="white"/>
</clipPath>
</defs>
</svg>
