<svg width="20" height="24" viewBox="0 0 20 24" fill="none" xmlns="http://www.w3.org/2000/svg">
<path d="M18 9.6H16.8V7.2C16.8 3.22359 13.5764 0 9.6 0C5.62359 0 2.4 3.22359 2.4 7.2V9.6H1.2C0.537188 9.6 0 10.1372 0 10.8V22.8C0 23.4628 0.537188 24 1.2 24H18C18.6628 24 19.2 23.4628 19.2 22.8V10.8C19.2 10.1372 18.6628 9.6 18 9.6ZM3.6 7.2C3.6 3.89161 6.29161 1.2 9.6 1.2C12.9084 1.2 15.6 3.89161 15.6 7.2V9.6H3.6V7.2ZM18 22.8H1.2V10.8H18V22.8Z" fill="white"/>
<path d="M9.5998 14.4004C8.60582 14.4004 7.7998 15.2064 7.7998 16.2004C7.7998 16.9828 8.30221 17.6424 8.9998 17.8904V20.4004H10.1998V17.8904C10.8974 17.6424 11.3998 16.9832 11.3998 16.2004C11.3998 15.2064 10.5938 14.4004 9.5998 14.4004ZM9.5998 16.8004C9.26901 16.8004 8.9998 16.5312 8.9998 16.2004C8.9998 15.8696 9.26901 15.6004 9.5998 15.6004C9.9306 15.6004 10.1998 15.8696 10.1998 16.2004C10.1998 16.5312 9.9306 16.8004 9.5998 16.8004Z" fill="white"/>
</svg>
