<svg width="24" height="24" viewBox="0 0 24 24" fill="none" xmlns="http://www.w3.org/2000/svg">
<path d="M12 0C5.38346 0 0 5.38346 0 12C0 18.6165 5.38346 24 12 24C18.6165 24 24 18.6165 24 12C24 5.38346 18.6165 0 12 0ZM18.7068 8.84211L11.0376 16.4511C10.5865 16.9023 9.86466 16.9323 9.38346 16.4812L5.32331 12.782C4.84211 12.3308 4.81203 11.5789 5.23308 11.0977C5.68421 10.6165 6.43609 10.5865 6.91729 11.0376L10.1353 13.985L16.9925 7.12782C17.4737 6.64662 18.2256 6.64662 18.7068 7.12782C19.188 7.60902 19.188 8.3609 18.7068 8.84211Z" fill="#6FCF97"/>
</svg>
