<svg width="12" height="15" viewBox="0 0 12 15" fill="none" xmlns="http://www.w3.org/2000/svg">
<path d="M11.3617 3.77198H11.2492L11.2665 3.31507C11.2811 2.92822 11.1377 2.56176 10.8627 2.28304C10.5877 2.00435 10.218 1.85087 9.82169 1.85087H7.90306V1.17003C7.90306 0.681027 7.49573 0.283203 6.99512 0.283203H5.26997C4.76932 0.283203 4.36206 0.681027 4.36206 1.17003V1.85084H2.4434C2.04711 1.85084 1.67743 2.00435 1.40244 2.28304C1.12741 2.56172 0.984016 2.92826 0.998625 3.31503L1.01589 3.77194H0.903412C0.575453 3.77194 0.30957 4.03164 0.30957 4.35197C0.30957 4.6723 0.575453 4.932 0.903412 4.932H1.05971L1.38866 13.6403C1.41748 14.403 2.0521 15.0004 2.83344 15.0004H9.43169C10.213 15.0004 10.8476 14.403 10.8765 13.6403L11.2054 4.932H11.3617C11.6896 4.932 11.9555 4.6723 11.9555 4.35197C11.9555 4.03164 11.6896 3.77198 11.3617 3.77198ZM5.54975 1.44327H6.71538V1.85084H5.54975V1.44327ZM2.18548 3.2723C2.18195 3.17911 2.22914 3.11685 2.25757 3.08804C2.28599 3.05923 2.34795 3.0109 2.4434 3.0109H9.82169C9.91714 3.0109 9.97909 3.05923 10.0075 3.08804C10.0359 3.11685 10.0831 3.17911 10.0796 3.2723L10.0607 3.77198H2.20436L2.18548 3.2723ZM9.68958 13.5976C9.68439 13.7337 9.57112 13.8404 9.43165 13.8404H8.80954V9.02737C8.80954 8.70704 8.54366 8.44734 8.2157 8.44734C7.88774 8.44734 7.62186 8.70704 7.62186 9.02737V13.8404H6.72635V9.02737C6.72635 8.70704 6.46046 8.44734 6.1325 8.44734C5.80455 8.44734 5.53866 8.70704 5.53866 9.02737V13.8404H4.64311V9.02737C4.64311 8.70704 4.37723 8.44734 4.04927 8.44734C3.72131 8.44734 3.45543 8.70704 3.45543 9.02737V13.8404H2.83336C2.69388 13.8404 2.58058 13.7337 2.57543 13.5976L2.24811 4.93204H10.0168L9.68958 13.5976Z" fill="#F8F8F8"/>
</svg>
