<svg width="20" height="24" viewBox="0 0 20 24" fill="none" xmlns="http://www.w3.org/2000/svg">
<path d="M9.60029 14.4004C8.60631 14.4004 7.80029 15.2064 7.80029 16.2004C7.80029 16.9828 8.3027 17.6424 9.00029 17.8904V20.4004H10.2003V17.8904C10.8979 17.6424 11.4003 16.9832 11.4003 16.2004C11.4003 15.2064 10.5943 14.4004 9.60029 14.4004ZM9.60029 16.8004C9.2695 16.8004 9.00029 16.5312 9.00029 16.2004C9.00029 15.8696 9.2695 15.6004 9.60029 15.6004C9.93109 15.6004 10.2003 15.8696 10.2003 16.2004C10.2003 16.5312 9.93109 16.8004 9.60029 16.8004Z" fill="white"/>
<path d="M18 9.6H3.6V7.2C3.6 3.89161 6.29161 1.2 9.6 1.2C12.4976 1.2 14.9212 3.2648 15.4788 6H16.692C16.1196 2.59598 13.1668 0 9.6 0C5.62359 0 2.4 3.22359 2.4 7.2V9.6H1.2C0.537188 9.6 0 10.1372 0 10.8V22.8C0 23.4628 0.537188 24 1.2 24H18C18.6628 24 19.2 23.4628 19.2 22.8V10.8C19.2 10.1372 18.6628 9.6 18 9.6ZM18 22.8H1.2V10.8H18V22.8Z" fill="white"/>
</svg>
