<svg width="45" height="24" viewBox="0 0 45 24" fill="none" xmlns="http://www.w3.org/2000/svg">
<path fill-rule="evenodd" clip-rule="evenodd" d="M0.0492096 24H44.9508C44.9834 23.5042 45 23.004 45 22.5C45 10.0736 34.9264 0 22.5 0C10.0736 0 0 10.0736 0 22.5C0 23.004 0.016571 23.5042 0.0492096 24ZM13.3455 16.65L21.9821 10.1727C22.2892 9.94241 22.7114 9.94241 23.0184 10.1727L31.6545 16.65C32.036 16.9362 32.1134 17.4775 31.8272 17.859C31.6575 18.0853 31.3982 18.2046 31.1356 18.2046C30.9554 18.2046 30.7735 18.1483 30.6181 18.0318L22.5002 11.9432L14.3819 18.0318C14.0002 18.318 13.4589 18.2406 13.1728 17.859C12.8866 17.4775 12.964 16.9362 13.3455 16.65Z" fill="#202129"/>
</svg>
